HIERARCHY
ROOT Hips
{
    OFFSET 0.000000 0.000000 0.000000
    CHANNELS 6 Xposition Yposition Zposition Zrotation Xrotation Yrotation
    JOINT Spine
    {
        OFFSET -0.000000 14.517291 0.000000
        CHANNELS 3 Zrotation Xrotation Yrotation
        JOINT Spine1
        {
            OFFSET -0.000000 37.558300 0.000000
            CHANNELS 3 Zrotation Xrotation Yrotation
            JOINT Neck
            {
                OFFSET -0.000000 37.404057 3.400369
                CHANNELS 3 Zrotation Xrotation Yrotation
                JOINT Head
                {
                    OFFSET -0.000000 24.785618 -3.540803
                    CHANNELS 3 Zrotation Xrotation Yrotation
                    End Site
                    {
                        OFFSET -0.000000 35.408028 0.000000
                    }
                }
            }
            JOINT LeftShoulder
            {
                OFFSET 6.992933 33.973492 -0.192664
                CHANNELS 3 Zrotation Xrotation Yrotation
                JOINT LeftArm
                {
                    OFFSET 21.527611 0.000000 0.000000
                    CHANNELS 3 Zrotation Xrotation Yrotation
                    JOINT LeftForeArm
                    {
                        OFFSET 56.353916 0.000000 0.000000
                        CHANNELS 3 Zrotation Xrotation Yrotation
                        JOINT LeftHand
                        {
                            OFFSET 47.774071 0.000000 0.000000
                            CHANNELS 3 Zrotation Xrotation Yrotation
                            End Site
                            {
                                OFFSET 26.556021 0.000000 0.000000
                            }
                        }
                    }
                }
            }
            JOINT RightShoulder
            {
                OFFSET -7.065357 33.973492 -0.192664
                CHANNELS 3 Zrotation Xrotation Yrotation
                JOINT RightArm
                {
                    OFFSET -21.527611 0.000000 0.000000
                    CHANNELS 3 Zrotation Xrotation Yrotation
                    JOINT RightForeArm
                    {
                        OFFSET -56.353916 0.000000 0.000000
                        CHANNELS 3 Zrotation Xrotation Yrotation
                        JOINT RightHand
                        {
                            OFFSET -47.774071 0.000000 0.000000
                            CHANNELS 3 Zrotation Xrotation Yrotation
                            End Site
                            {
                                OFFSET -26.556021 0.000000 0.000000
                            }
                        }
                    }
                }
            }
        }
    }
    JOINT LeftUpLeg
    {
        OFFSET 17.704014 0.000000 0.000000
        CHANNELS 3 Zrotation Xrotation Yrotation
        JOINT LeftLeg
        {
            OFFSET -0.000000 -81.181816 0.000000
            CHANNELS 3 Zrotation Xrotation Yrotation
            JOINT LeftFoot
            {
                OFFSET -0.000000 -62.821102 0.000000
                CHANNELS 3 Zrotation Xrotation Yrotation
                JOINT LeftToeBase
                {
                    OFFSET -0.000000 -11.507608 26.556021
                    CHANNELS 3 Zrotation Xrotation Yrotation
                    End Site
                    {
                        OFFSET -0.000000 0.000000 7.081605
                    }
                }
            }
        }
    }
    JOINT RightUpLeg
    {
        OFFSET -17.704014 0.000000 0.000000
        CHANNELS 3 Zrotation Xrotation Yrotation
        JOINT RightLeg
        {
            OFFSET -0.000000 -81.181816 0.000000
            CHANNELS 3 Zrotation Xrotation Yrotation
            JOINT RightFoot
            {
                OFFSET -0.000000 -62.821102 0.000000
                CHANNELS 3 Zrotation Xrotation Yrotation
                JOINT RightToeBase
                {
                    OFFSET -0.000000 -11.507608 26.556021
                    CHANNELS 3 Zrotation Xrotation Yrotation
                    End Site
                    {
                        OFFSET -0.000000 0.000000 7.081605
                    }
                }
            }
        }
    }
}
MOTION
Frames:    4
Frame Time:    0.008333
-21.270987    163.973694    -77.418686    -8.746607    -22.531055    43.148163    3.602674    5.295712    -5.806056    3.479480    8.532403    -2.141557    20.741457    0.356969    -1.974900    1.492599    -2.827314    -4.857009    13.169501    7.128728    -21.216194    -37.359730    20.940577    -35.470749    -1.352269    -34.205475    -110.566742    -3.808302    -35.474632    -12.153321    6.824423    2.548098    -12.464626    31.859426    19.501514    2.528328    -3.149998    -8.290905    -3.063470    -3.438548    -9.081287    23.495258    25.393509    0.105082    5.705233    -4.914201    36.346638    -16.731443    8.379689    -21.845625    35.089695    0.000000    0.000000    0.000000    -88.050423    -44.540867    -53.792366    8.604405    16.460056    -8.966066    21.159845    13.715895    -36.617981    0.000000    0.000000    0.000000    
-21.241125    163.961380    -77.429718    -8.744885    -22.507816    43.111572    3.602024    5.296430    -5.825878    3.475520    8.530843    -2.147814    20.730576    0.354620    -1.978310    1.514492    -2.787686    -4.856246    13.167351    7.145586    -21.230810    -37.362652    20.919128    -35.463814    -1.416503    -34.139145    -110.602554    -3.786660    -35.490135    -12.064734    6.824167    2.523836    -12.477446    31.873083    19.549049    2.514408    -3.126832    -8.199719    -3.151141    -3.553282    -9.017497    23.553406    25.358875    0.111283    5.764991    -4.887716    36.355598    -16.712841    8.374383    -21.861027    35.052986    0.000000    0.000000    0.000000    -88.074112    -44.564487    -53.826618    8.587461    16.444069    -8.986904    21.183781    13.733563    -36.641224    0.000000    0.000000    0.000000    
-21.211689    163.943100    -77.446510    -8.754513    -22.458822    43.073502    3.588455    5.255746    -5.846961    3.473765    8.551893    -2.155930    20.732765    0.332593    -1.977645    1.514895    -2.724519    -4.860782    13.169891    7.145867    -21.247223    -37.379208    20.898064    -35.455082    -1.452320    -34.069191    -110.618011    -3.766765    -35.466267    -12.046041    6.815708    2.502157    -12.489263    31.881952    19.593855    2.516213    -3.092529    -8.124502    -3.231198    -3.633278    -8.958919    23.516439    25.313715    0.081870    5.817559    -4.870214    36.387917    -16.729984    8.378732    -21.878578    35.063335    0.000000    0.000000    0.000000    -88.136963    -44.593773    -53.909832    8.556977    16.434925    -8.997206    21.186653    13.779678    -36.658428    0.000000    0.000000    0.000000    
-21.184883    163.933655    -77.459892    -8.772029    -22.421146    43.039238    3.577708    5.235389    -5.875438    3.487293    8.540983    -2.166441    20.744480    0.342898    -1.981356    1.501359    -2.685700    -4.867210    13.160291    7.156484    -21.258768    -37.387589    20.915916    -35.452957    -1.407049    -34.100327    -110.602722    -3.927713    -35.428703    -12.068499    6.810684    2.485856    -12.498959    31.888407    19.730253    2.517797    -3.093390    -8.130153    -3.291286    -3.668210    -8.971817    23.468704    25.285303    0.053738    5.836455    -4.871068    36.409935    -16.718443    8.375629    -21.891832    35.073341    0.000000    0.000000    0.000000    -88.170410    -44.603374    -53.929539    8.555156    16.401321    -9.021361    21.192524    13.786930    -36.693745    0.000000    0.000000    0.000000    
